HIERARCHY
ROOT RootJoint
{
    OFFSET   0.000000   0.000000   0.000000
    CHANNELS 6 Xposition Yposition Zposition Xrotation Yrotation Zrotation
    JOINT pelvis_lowerback
    {
        OFFSET   0.000000   0.093605   0.000000
        CHANNELS 3 Xrotation Yrotation Zrotation
        JOINT lowerback_torso
        {
            OFFSET   0.000000   0.100000   0.000000
            CHANNELS 3 Xrotation Yrotation Zrotation
            JOINT torso_head
            {
                OFFSET   0.000000   0.282350   0.000000
                CHANNELS 3 Xrotation Yrotation Zrotation
                End Site
                {
                    OFFSET   0.000000   0.192650   0.000000
                }
            }
            JOINT rTorso_Clavicle
            {
                OFFSET  -0.001000   0.157500   0.000000
                CHANNELS 3 Xrotation Yrotation Zrotation
                JOINT rShoulder
                {
                    OFFSET  -0.117647   0.000000   0.000000
                    CHANNELS 3 Xrotation Yrotation Zrotation
                    JOINT rElbow
                    {
                        OFFSET  -0.245000   0.000000   0.000000
                        CHANNELS 3 Xrotation Yrotation Zrotation
                        JOINT rWrist
                        {
                            OFFSET  -0.240000   0.000000   0.000000
                            CHANNELS 3 Xrotation Yrotation Zrotation
                            End Site
                            {
                                OFFSET  -0.116353  -0.002500   0.000000
                            }
                        }
                    }
                }
            }
            JOINT lTorso_Clavicle
            {
                OFFSET   0.001000   0.157500   0.000000
                CHANNELS 3 Xrotation Yrotation Zrotation
                JOINT lShoulder
                {
                    OFFSET   0.117647   0.000000   0.000000
                    CHANNELS 3 Xrotation Yrotation Zrotation
                    JOINT lElbow
                    {
                        OFFSET   0.245000   0.000000   0.000000
                        CHANNELS 3 Xrotation Yrotation Zrotation
                        JOINT lWrist
                        {
                            OFFSET   0.240000   0.000000   0.000000
                            CHANNELS 3 Xrotation Yrotation Zrotation
                            End Site
                            {
                                OFFSET   0.116353  -0.002500   0.000000
                            }
                        }
                    }
                }
            }
        }
    }
    JOINT rHip
    {
        OFFSET  -0.100000  -0.051395   0.000000
        CHANNELS 3 Xrotation Yrotation Zrotation
        JOINT rKnee
        {
            OFFSET   0.000000  -0.410000   0.000000
            CHANNELS 3 Xrotation Yrotation Zrotation
            JOINT rAnkle
            {
                OFFSET   0.000000  -0.390000   0.000000
                CHANNELS 3 Xrotation Yrotation Zrotation
                JOINT rToeJoint
                {
                    OFFSET   0.000000  -0.050000   0.130000
                    CHANNELS 3 Xrotation Yrotation Zrotation
                    End Site
                    {
                        OFFSET  -0.010000   0.002000   0.060000
                    }
                }
            }
        }
    }
    JOINT lHip
    {
        OFFSET   0.100000  -0.051395   0.000000
        CHANNELS 3 Xrotation Yrotation Zrotation
        JOINT lKnee
        {
            OFFSET   0.000000  -0.410000   0.000000
            CHANNELS 3 Xrotation Yrotation Zrotation
            JOINT lAnkle
            {
                OFFSET   0.000000  -0.390000   0.000000
                CHANNELS 3 Xrotation Yrotation Zrotation
                JOINT lToeJoint
                {
                    OFFSET   0.000000  -0.050000   0.130000
                    CHANNELS 3 Xrotation Yrotation Zrotation
                    End Site
                    {
                        OFFSET   0.010000   0.002000   0.060000
                    }
                }
            }
        }
    }
}
MOTION
Frames: 15
Frame Time:   0.008333
 -2.396402   0.870922   4.285051   2.033209   2.768937   0.219584   9.228542  -4.657961  -0.652597   1.273301  -2.663849   3.657683  -2.716894   0.352605   1.516693   2.684934  -4.733691  13.438074  10.285146   6.387084  40.871885  -0.002002   5.083317   0.000358  10.730350   2.150856   7.037297   2.012751   0.545612 -10.256945  12.196768 -19.021169 -40.779266  -0.000690 -16.359301   0.001493   9.532820  -3.964667  -7.984281 -31.616763   2.544293  -5.069625  26.638189  -0.011934   0.001670  -7.199915  -2.816123   6.023721  -1.936569  -0.000029  -0.000256  18.550233  -2.028922   4.894855   8.263444  -0.001970   0.000978 -14.724329  -0.580459  -1.815480 -20.447328   0.000659  -0.000363
 -2.399431   0.870869   4.292399   2.113397   2.826152   0.116486   9.236615  -4.708478  -0.435240   1.358679  -2.669659   3.728774  -2.747839   0.314054   1.436185   2.670238  -4.682853  13.554047  10.261662   6.269728  40.820743  -0.001940   4.917333   0.000344  10.757022   2.132639   7.030257   2.031053   0.444153 -10.402382  12.187742 -19.082106 -40.759060  -0.000461 -16.492835   0.001486   9.540090  -3.935518  -7.917434 -31.718381   2.487145  -4.733832  27.550471  -0.011358   0.002819  -7.110476  -2.877132   5.684859  -1.776357   0.000169  -0.000237  18.596512  -2.057305   5.237883   8.877215  -0.002779   0.000893 -13.792181  -0.589525  -2.082150 -23.279860  -0.000768  -0.000995
 -2.402548   0.870912   4.299887   2.188881   2.828109  -0.011229   9.220809  -4.743685  -0.222675   1.441279  -2.665171   3.797708  -2.774653   0.277897   1.356770   2.660489  -4.640028  13.657116  10.241388   6.158490  40.782230  -0.001846   4.762663   0.000267  10.779604   2.123879   7.050631   2.062346   0.361891 -10.526544  12.187294 -19.133797 -40.751424  -0.000283 -16.616492   0.001458   9.545938  -3.901408  -7.897410 -31.753495   2.419658  -4.350960  28.354675  -0.010778   0.003337  -7.055131  -2.933470   5.364710  -1.641784   0.000260  -0.000235  18.607149  -2.091525   5.595637   9.574598  -0.003712   0.000498 -12.691861  -0.618697  -2.268560 -26.638477  -0.000603   0.000903
 -2.405703   0.870993   4.307494   2.265391   2.771482  -0.129486   9.185815  -4.767880  -0.039213   1.510427  -2.652853   3.855312  -2.801297   0.244320   1.281325   2.654189  -4.603744  13.751479  10.224219   6.052653  40.747555  -0.001727   4.617840   0.000145  10.801043   2.117277   7.079413   2.101750   0.296677 -10.636696  12.195032 -19.173829 -40.743771  -0.000154 -16.728587   0.001409   9.552483  -3.857055  -7.895119 -31.758348   2.345811  -3.961228  29.098289  -0.010269   0.003304  -7.011010  -2.987218   5.067027  -1.522099   0.000289  -0.000277  18.620252  -2.125707   5.930518  10.276475  -0.004559  -0.000105 -11.631113  -0.652776  -2.437358 -29.424894  -0.000692   0.003381
 -2.408874   0.871080   4.315193   2.347841   2.667085  -0.235649   9.135256  -4.786680   0.120415   1.564751  -2.637059   3.901170  -2.828653   0.212963   1.209516   2.649769  -4.572173  13.835625  10.209311   5.952343  40.713623  -0.001594   4.482328   0.000003  10.821468   2.110714   7.107496   2.144858   0.243166 -10.735758  12.207529 -19.205653 -40.735608  -0.000063 -16.830764   0.001352   9.560079  -3.803497  -7.899631 -31.746551   2.266610  -3.573370  29.797227  -0.009828   0.002935  -6.971687  -3.038840   4.791128  -1.413627   0.000281  -0.000342  18.640139  -2.160627   6.240470  10.963334  -0.005271  -0.000804 -10.608743  -0.693129  -2.590046 -31.671524  -0.000959   0.005704
 -2.412051   0.871156   4.322959   2.438969   2.523803  -0.331423   9.073103  -4.803117   0.261788   1.605356  -2.620598   3.937608  -2.856573   0.183620   1.141520   2.646112  -4.543874  13.909109  10.195954   5.857756  40.679024  -0.001454   4.355716  -0.000142  10.840894   2.104075   7.130806   2.188218   0.197049 -10.825594  12.221911 -19.232435 -40.727085  -0.000002 -16.924846   0.001297   9.568241  -3.745459  -7.906491 -31.725038   2.183503  -3.189512  30.459698  -0.009441   0.002385  -6.934322  -3.088315   4.535724  -1.314795   0.000250  -0.000412  18.666230  -2.195837   6.527632  11.629531  -0.005843  -0.001520  -9.623135  -0.738564  -2.727408 -33.433629  -0.001245   0.007460
 -2.415227   0.871205   4.330771   2.540447   2.348356  -0.418800   9.002868  -4.818952   0.389037   1.634001  -2.605156   3.966993  -2.884674   0.156150   1.077484   2.642503  -4.517828  13.972461  10.183618   5.768993  40.643354  -0.001317   4.237592  -0.000279  10.859326   2.097760   7.147800   2.229495   0.155348 -10.907427  12.236220 -19.256392 -40.718234   0.000039 -17.012262   0.001246   9.576447  -3.687275  -7.913144 -31.698233   2.097528  -2.810337  31.091081  -0.009096   0.001754  -6.897358  -3.135616   4.299474  -1.224551   0.000207  -0.000478  18.697244  -2.230631   6.794322  12.272712  -0.006280  -0.002202  -8.672895  -0.787431  -2.850152 -34.764423  -0.001441   0.008491
 -2.418393   0.871822   4.338320   2.599523   2.258626  -0.567619   9.012120  -4.813616   0.594179   1.683396  -2.632424   4.017880  -2.908093   0.179725   1.012992   2.635121  -4.481447  13.996867  10.075893   5.699332  40.633250  -0.001073   4.221409  -0.000243  10.847293   1.967091   7.200910   2.205362  -0.015842 -10.977737  12.210889 -19.287923 -40.786653   0.000008 -16.983232   0.000918   9.764663  -3.665659  -7.920906 -31.439625   2.043098  -2.364806  31.395201  -0.007971   0.001746  -6.899881  -3.050697   3.997185  -1.036296   0.000260  -0.000182  18.219242  -2.226633   7.118078  13.867587  -0.008426  -0.001893  -7.520461  -0.871991  -3.089564 -37.085610  -0.002372   0.006632
 -2.421502   0.872658   4.345981   2.626813   2.090584  -0.704487   9.013024  -4.767588   0.779768   1.744043  -2.634309   4.059336  -2.918486   0.205972   0.954692   2.612933  -4.433714  14.002674   9.963682   5.647961  40.619185  -0.000863   4.215826  -0.000202  10.830617   1.882427   7.250231   2.183051  -0.180593 -11.042363  12.185310 -19.322591 -40.859176  -0.000012 -16.956706   0.000664   9.734151  -3.606585  -7.972339 -31.084819   2.018957  -1.906731  31.585740  -0.006825   0.001532  -6.941939  -2.961510   3.698707  -0.868505   0.000277  -0.000014  17.713111  -2.225926   7.399947  15.583618  -0.010548  -0.002437  -6.348240  -0.957758  -3.294365 -38.655257  -0.002650   0.005867
 -2.424561   0.873564   4.353772   2.652294   1.855855  -0.824992   8.986313  -4.703818   0.943827   1.789986  -2.616735   4.088795  -2.926408   0.231231   0.900316   2.584252  -4.381757  13.992568   9.853723   5.606009  40.597926  -0.000692   4.214599  -0.000164  10.812219   1.826225   7.286227   2.169712  -0.325330 -11.098033  12.166195 -19.350439 -40.929121  -0.000022 -16.931128   0.000467   9.710118  -3.550918  -8.038536 -30.700295   1.995562  -1.458168  31.725625  -0.005804   0.001233  -6.999273  -2.877371   3.416884  -0.719257   0.000257   0.000010  17.233195  -2.235867   7.643712  17.262497  -0.012421  -0.003681  -5.179451  -1.052612  -3.471558 -39.413289  -0.002552   0.005404
 -2.427578   0.874459   4.361665   2.685287   1.572753  -0.934367   8.934823  -4.633104   1.092213   1.815563  -2.588146   4.110364  -2.936000   0.254907   0.849464   2.551757  -4.328082  13.969286   9.747619   5.570569  40.569687  -0.000553   4.215978  -0.000128  10.792802   1.787028   7.306525   2.162941  -0.453053 -11.143729  12.152824 -19.371653 -40.993354  -0.000023 -16.905879   0.000313   9.692113  -3.494621  -8.108846 -30.311232   1.966852  -1.021464  31.843518  -0.004942   0.000927  -7.060398  -2.799593   3.154342  -0.584735   0.000213  -0.000050  16.786567  -2.254328   7.859105  18.868069  -0.013971  -0.005199  -4.027041  -1.154518  -3.624743 -39.488398  -0.002106   0.004421
 -2.430560   0.875294   4.369626   2.728394   1.255460  -1.037272   8.864675  -4.561096   1.229625   1.822354  -2.554164   4.127975  -2.947852   0.276941   0.802102   2.516665  -4.273622  13.936076   9.645754   5.540448  40.535815  -0.000441   4.219196  -0.000095  10.772797   1.759503   7.311986   2.159093  -0.568137 -11.179735  12.142890 -19.388335 -41.050480  -0.000018 -16.881431   0.000192   9.679260  -3.437390  -8.176225 -29.928891   1.932538  -0.595601  31.955136  -0.004242   0.000639  -7.119427  -2.727936   2.910889  -0.462662   0.000157  -0.000147  16.372553  -2.278190   8.053396  20.391112  -0.015173  -0.006698  -2.899820  -1.259234  -3.756464 -39.014533  -0.001470   0.002667
 -2.433508   0.876042   4.377626   2.782359   0.914092  -1.136780   8.781531  -4.490992   1.359213   1.813587  -2.518352   4.144357  -2.961549   0.297410   0.758147   2.479774  -4.218913  13.896084   9.548186   5.514953  40.497981  -0.000351   4.223817  -0.000065  10.752479   1.740979   7.304824   2.155434  -0.674031 -11.207042  12.134434 -19.402424 -41.100196  -0.000009 -16.858364   0.000099   9.670488  -3.380963  -8.236382 -29.559103   1.893397  -0.179578  32.069431  -0.003692   0.000370  -7.173245  -2.661907   2.685549  -0.351440   0.000098  -0.000255  15.988905  -2.305142   8.231413  21.829625  -0.016029  -0.008023  -1.803991  -1.363260  -3.869024 -38.102479  -0.000865   0.000211
 -2.436342   0.877183   4.385164   2.808570   0.729929  -1.302921   8.789456  -4.452537   1.566482   1.824751  -2.529490   4.193646  -2.989400   0.340398   0.742283   2.482708  -4.139176  13.802628   9.324918   5.493480  40.490563  -0.000272   4.461037   0.000442  10.729380   1.591848   7.320733   2.099884  -0.874970 -11.168914  12.067162 -19.368708 -41.232375  -0.000002 -16.838578   0.000036   9.653966  -3.398260  -8.288910 -29.041197   1.769931   0.252418  31.987510  -0.002747   0.000329  -7.425511  -2.463978   2.317962  -0.199803   0.000206  -0.000079  15.077044  -2.282162   8.457772  24.314914  -0.016732  -0.005828  -0.954416  -1.338289  -3.859193 -35.552206  -0.005236   0.001834
 -2.439057   0.878450   4.392659   2.793791   0.533135  -1.463555   8.805176  -4.384864   1.755136   1.856599  -2.520964   4.244449  -3.002659   0.382360   0.731268   2.467088  -4.049159  13.697576   9.101882   5.490285  40.477033  -0.000279   4.696763   0.000775  10.697326   1.528427   7.317499   2.044215  -1.065960 -11.111424  12.003392 -19.337888 -41.347531   0.000008 -16.822123  -0.000002   9.636792  -3.434867  -8.344570 -28.436245   1.676718   0.677230  31.824299  -0.001803   0.000331  -7.701238  -2.269933   1.961810  -0.078825   0.000264   0.000040  14.131561  -2.244061   8.649335  26.774884  -0.016451  -0.003779  -0.098367  -1.276579  -3.830876 -32.622472  -0.009665   0.004936
